<?xml version="1.0" encoding="utf-8"?>
<!-- Generator: Adobe Illustrator 27.7.0, SVG Export Plug-In . SVG Version: 6.00 Build 0)  -->
<svg version="1.1" id="Layer_1" xmlns="http://www.w3.org/2000/svg" xmlns:xlink="http://www.w3.org/1999/xlink" x="0px" y="0px"
	 viewBox="0 0 36 36" style="enable-background:new 0 0 36 36;" xml:space="preserve">
<style type="text/css">
	.st0{fill:#4F87C7;}
</style>
<g>
	<g>
		<path class="st0" d="M6.2,36.3c0.4,0.2,0.7,0.4,0.9,0.7v-0.9h1.3v6.2c0,0.6-0.1,1.1-0.4,1.5c-0.2,0.4-0.6,0.8-1,1
			c-0.4,0.3-1,0.4-1.6,0.4c-0.8,0-1.5-0.2-2.1-0.6c-0.5-0.4-0.9-0.9-0.9-1.6h1.3c0.1,0.3,0.3,0.6,0.6,0.8c0.3,0.2,0.7,0.3,1.1,0.3
			c0.5,0,0.9-0.2,1.2-0.5c0.3-0.3,0.5-0.8,0.5-1.4v-1c-0.2,0.3-0.5,0.5-0.9,0.7c-0.4,0.2-0.8,0.3-1.3,0.3c-0.5,0-1-0.1-1.5-0.4
			c-0.4-0.3-0.8-0.6-1-1.1c-0.3-0.5-0.4-1-0.4-1.7s0.1-1.2,0.4-1.6c0.3-0.5,0.6-0.8,1-1.1C4,36.1,4.4,36,5,36
			C5.5,36,5.9,36.1,6.2,36.3z M6.8,38.1c-0.2-0.3-0.4-0.5-0.7-0.7c-0.3-0.2-0.6-0.2-0.9-0.2s-0.6,0.1-0.9,0.2
			c-0.3,0.2-0.5,0.4-0.7,0.7c-0.2,0.3-0.3,0.7-0.3,1.1c0,0.4,0.1,0.8,0.3,1.1s0.4,0.6,0.7,0.7c0.3,0.2,0.6,0.3,0.9,0.3
			c0.3,0,0.6-0.1,0.9-0.2c0.3-0.2,0.5-0.4,0.7-0.7s0.3-0.7,0.3-1.1C7.1,38.8,7,38.4,6.8,38.1z"/>
		<path class="st0" d="M15.2,39.7h-4.7c0,0.5,0.2,0.9,0.5,1.2s0.7,0.4,1.2,0.4c0.7,0,1.2-0.3,1.4-0.9h1.4c-0.2,0.6-0.5,1-1,1.4
			c-0.5,0.4-1.1,0.5-1.8,0.5c-0.6,0-1.1-0.1-1.6-0.4c-0.5-0.3-0.8-0.6-1.1-1.1c-0.3-0.5-0.4-1-0.4-1.7c0-0.6,0.1-1.2,0.4-1.7
			c0.3-0.5,0.6-0.8,1.1-1.1s1-0.4,1.6-0.4c0.6,0,1.1,0.1,1.5,0.4c0.5,0.3,0.8,0.6,1.1,1.1c0.3,0.5,0.4,1,0.4,1.6
			C15.2,39.3,15.2,39.5,15.2,39.7z M13.9,38.6c0-0.5-0.2-0.8-0.5-1.1s-0.7-0.4-1.2-0.4c-0.4,0-0.8,0.1-1.1,0.4
			c-0.3,0.3-0.5,0.7-0.6,1.1H13.9z"/>
		<path class="st0" d="M17.1,42c-0.5-0.3-0.8-0.6-1.1-1.1c-0.3-0.5-0.4-1-0.4-1.7c0-0.6,0.1-1.2,0.4-1.7c0.3-0.5,0.6-0.9,1.1-1.1
			s1-0.4,1.6-0.4c0.6,0,1.1,0.1,1.6,0.4s0.9,0.6,1.1,1.1c0.3,0.5,0.4,1,0.4,1.7c0,0.6-0.1,1.2-0.4,1.7s-0.7,0.9-1.2,1.1
			s-1,0.4-1.6,0.4C18.1,42.3,17.6,42.2,17.1,42z M19.6,41c0.3-0.2,0.5-0.4,0.7-0.7c0.2-0.3,0.3-0.7,0.3-1.1c0-0.4-0.1-0.8-0.3-1.1
			c-0.2-0.3-0.4-0.5-0.7-0.7c-0.3-0.2-0.6-0.2-0.9-0.2s-0.6,0.1-0.9,0.2c-0.3,0.2-0.5,0.4-0.7,0.7c-0.2,0.3-0.2,0.7-0.2,1.1
			c0,0.7,0.2,1.2,0.5,1.5c0.3,0.4,0.8,0.5,1.3,0.5C19,41.2,19.3,41.2,19.6,41z"/>
		<path class="st0" d="M24.2,37.1v3.4c0,0.2,0.1,0.4,0.2,0.5c0.1,0.1,0.3,0.2,0.6,0.2h0.8v1.1h-1c-0.6,0-1-0.1-1.3-0.4
			c-0.3-0.3-0.5-0.7-0.5-1.3v-3.4h-0.7v-1h0.7v-1.5h1.3v1.5h1.5v1H24.2z"/>
		<path class="st0" d="M26.5,35.1c-0.2-0.2-0.2-0.3-0.2-0.6c0-0.2,0.1-0.4,0.2-0.6c0.2-0.2,0.3-0.2,0.6-0.2c0.2,0,0.4,0.1,0.6,0.2
			c0.2,0.2,0.2,0.3,0.2,0.6c0,0.2-0.1,0.4-0.2,0.6c-0.2,0.2-0.3,0.2-0.6,0.2C26.8,35.3,26.6,35.2,26.5,35.1z M27.7,36.1v6.1h-1.3
			v-6.1H27.7z"/>
		<path class="st0" d="M37.6,36.3c0.4,0.2,0.7,0.5,0.9,0.9s0.3,0.9,0.3,1.4v3.6h-1.3v-3.4c0-0.5-0.1-1-0.4-1.3
			c-0.3-0.3-0.6-0.4-1.1-0.4s-0.9,0.1-1.1,0.4c-0.3,0.3-0.4,0.7-0.4,1.3v3.4h-1.3v-3.4c0-0.5-0.1-1-0.4-1.3
			c-0.3-0.3-0.6-0.4-1.1-0.4c-0.5,0-0.9,0.1-1.1,0.4c-0.3,0.3-0.4,0.7-0.4,1.3v3.4h-1.3v-6.1h1.3v0.7c0.2-0.3,0.5-0.4,0.8-0.6
			c0.3-0.1,0.7-0.2,1-0.2c0.5,0,0.9,0.1,1.3,0.3c0.4,0.2,0.7,0.5,0.9,0.9c0.2-0.4,0.5-0.7,0.9-0.9c0.4-0.2,0.8-0.3,1.3-0.3
			C36.8,36,37.2,36.1,37.6,36.3z"/>
		<path class="st0" d="M45.6,39.7h-4.7c0,0.5,0.2,0.9,0.5,1.2c0.3,0.3,0.7,0.4,1.2,0.4c0.7,0,1.2-0.3,1.4-0.9h1.4
			c-0.2,0.6-0.5,1-1,1.4c-0.5,0.4-1.1,0.5-1.8,0.5c-0.6,0-1.1-0.1-1.6-0.4s-0.8-0.6-1.1-1.1c-0.3-0.5-0.4-1-0.4-1.7
			c0-0.6,0.1-1.2,0.4-1.7c0.3-0.5,0.6-0.8,1.1-1.1c0.5-0.3,1-0.4,1.6-0.4c0.6,0,1.1,0.1,1.5,0.4c0.5,0.3,0.8,0.6,1.1,1.1
			c0.3,0.5,0.4,1,0.4,1.6C45.6,39.3,45.6,39.5,45.6,39.7z M44.3,38.6c0-0.5-0.2-0.8-0.5-1.1s-0.7-0.4-1.2-0.4
			c-0.4,0-0.8,0.1-1.1,0.4c-0.3,0.3-0.5,0.7-0.6,1.1H44.3z"/>
	</g>
	<g>
		<path class="st0" d="M46.3,16.1c0,0.7-0.6,1.3-1.3,1.3c-0.7,0-1.3-0.6-1.3-1.3c0-0.7,0.6-1.3,1.3-1.3
			C45.8,14.8,46.3,15.4,46.3,16.1z"/>
		<path class="st0" d="M28.4,34.2c0,0.7-0.6,1.3-1.3,1.3c-0.7,0-1.3-0.6-1.3-1.3c0-0.7,0.6-1.3,1.3-1.3
			C27.8,32.9,28.4,33.4,28.4,34.2z"/>
		<circle class="st0" cx="8.8" cy="16.2" r="1.3"/>
		<g>
			<g>
				<path class="st0" d="M24.8,15.7c-0.3,0-0.6-0.1-0.9-0.4l-1.6-1.6c-0.5-0.5-0.5-1.3,0-1.8c0.5-0.5,1.3-0.5,1.8,0l1.6,1.6
					c0.5,0.5,0.5,1.3,0,1.8C25.5,15.6,25.2,15.7,24.8,15.7z"/>
			</g>
			<g>
				<path class="st0" d="M27.1,17.7c-0.3,0-0.6-0.1-0.9-0.4c-0.5-0.5-0.5-1.3,0-1.8l4.9-4.9c0.5-0.5,1.3-0.5,1.8,0
					c0.5,0.5,0.5,1.3,0,1.8L28,17.3C27.7,17.6,27.4,17.7,27.1,17.7z"/>
			</g>
		</g>
		<g>
			<g>
				<path class="st0" d="M26.9,30.8c-8.1,0-14.6-6.6-14.6-14.6S18.8,1.6,26.9,1.6c0.8,0,1.4,0.6,1.4,1.4s-0.6,1.4-1.4,1.4
					c-6.5,0-11.7,5.3-11.7,11.7s5.3,11.7,11.7,11.7s11.7-5.3,11.7-11.7c0-0.8,0.6-1.4,1.4-1.4s1.4,0.6,1.4,1.4
					C41.5,24.3,35,30.8,26.9,30.8z"/>
			</g>
		</g>
	</g>
</g>
</svg>
