<?xml version="1.0" encoding="utf-8"?>
<svg xmlns="http://www.w3.org/2000/svg" viewBox="0 0 46 46" >
  <style type="text/css">
    .st0{
      fill:white;
    }

    .st1 {
      fill: greenyellow;
    }
  </style>
  <g>
    <path class="st0" d="M46.3,16.1c0,0.7-0.6,1.3-1.3,1.3c-0.7,0-1.3-0.6-1.3-1.3c0-0.7,0.6-1.3,1.3-1.3
			                        C45.8,14.8,46.3,15.4,46.3,16.1z"/>
    <path class="st0" d="M28.4,34.2c0,0.7-0.6,1.3-1.3,1.3c-0.7,0-1.3-0.6-1.3-1.3c0-0.7,0.6-1.3,1.3-1.3
			                        C27.8,32.9,28.4,33.4,28.4,34.2z"/>
    <circle class="st0" cx="8.8" cy="16.2" r="1.3"/>
    <g>
      <g>
        <path class="st1" d="M24.8,15.7c-0.3,0-0.6-0.1-0.9-0.4l-1.6-1.6c-0.5-0.5-0.5-1.3,0-1.8c0.5-0.5,1.3-0.5,1.8,0l1.6,1.6
					                        c0.5,0.5,0.5,1.3,0,1.8C25.5,15.6,25.2,15.7,24.8,15.7z"/>
      </g>
      <g>
        <path class="st1" d="M27.1,17.7c-0.3,0-0.6-0.1-0.9-0.4c-0.5-0.5-0.5-1.3,0-1.8l4.9-4.9c0.5-0.5,1.3-0.5,1.8,0
					                        c0.5,0.5,0.5,1.3,0,1.8L28,17.3C27.7,17.6,27.4,17.7,27.1,17.7z"/>
      </g>
    </g>
    <g>
      <g>
        <path class="st0" d="M26.9,30.8c-8.1,0-14.6-6.6-14.6-14.6S18.8,1.6,26.9,1.6c0.8,0,1.4,0.6,1.4,1.4s-0.6,1.4-1.4,1.4
					                        c-6.5,0-11.7,5.3-11.7,11.7s5.3,11.7,11.7,11.7s11.7-5.3,11.7-11.7c0-0.8,0.6-1.4,1.4-1.4s1.4,0.6,1.4,1.4
					                        C41.5,24.3,35,30.8,26.9,30.8z"/>
      </g>
    </g>
  </g>

</svg>