<svg width="25" height="27" viewBox="0 0 22 29" fill="none" xmlns="http://www.w3.org/2000/svg">
<path id="Vector_2" d="M10.9968 13.3841C7.35903 13.3841 4.3949 10.3846 4.3949 6.6888C4.3949 2.99304 7.35903 0 10.9968 0C14.6346 0 17.5987 2.99955 17.5987 6.69531C17.5987 10.3911 14.641 13.3906 10.9968 13.3906V13.3841ZM10.9968 2.23177C8.57162 2.23177 6.59554 4.23581 6.59554 6.69531C6.59554 9.15481 8.57162 11.1589 10.9968 11.1589C13.422 11.1589 15.3981 9.15481 15.3981 6.69531C15.3981 4.23581 13.422 2.23177 10.9968 2.23177Z" fill="#878787"/>
<path id="Vector_3" d="M20.8965 29H1.09711C0.487606 29 0 28.499 0 27.8874V26.6771C0.0192476 24.7837 0.513269 22.9228 1.43074 21.2766C2.34821 19.637 3.66346 18.2511 5.24818 17.2621C6.8329 16.2731 8.64859 15.707 10.5028 15.6159C10.8428 15.5964 11.1829 15.6029 11.5036 15.6159C13.3578 15.707 15.1799 16.2731 16.7582 17.2621C18.343 18.2511 19.6582 19.637 20.5757 21.2766C21.4931 22.9163 21.9808 24.7772 22 26.6641V27.8874C22 28.5055 21.506 29 20.9029 29H20.8965ZM2.20064 26.7747H19.7994V26.6836C19.7865 25.1871 19.3887 23.6971 18.6573 22.3828C17.9259 21.0684 16.8673 19.9623 15.6034 19.1685C14.3395 18.3812 12.8831 17.9257 11.3946 17.8542C11.1379 17.8411 10.8813 17.8411 10.6054 17.8542C9.12336 17.9257 7.66696 18.3812 6.40303 19.1685C5.13911 19.9558 4.08049 21.0684 3.34908 22.3828C2.61767 23.6971 2.21989 25.1871 2.20706 26.6967V26.7812L2.20064 26.7747Z" fill="#878787"/>
</svg>
